<svg width="1673" height="255" viewBox="0 0 1673 255" fill="none" xmlns="http://www.w3.org/2000/svg">
<g id="Layer 3">
<g id="Layer 1">
<g id="Vector">
<path d="M0 9.18945C33.9377 6.17439 68.0759 6.1744 102.014 9.18945V11.8418C97.1812 13.36 92.4319 15.1311 87.7852 17.1475C79.3443 20.7649 77.1734 25.106 80.3086 32.8232C102.014 84.6735 123.96 136.765 145.906 188.615C145.906 189.821 147.354 190.786 148.56 193.197C150.276 190.826 151.808 188.327 153.142 185.722C169.541 147.859 186.664 110.237 201.375 72.1328C204.392 66.4447 205.984 60.1095 206.014 53.6709C206.043 47.2323 204.509 40.8826 201.545 35.167C198.58 29.4513 194.272 24.5401 188.992 20.8555C183.712 17.1711 177.617 14.8231 171.229 14.0127C169.127 13.4421 167.159 12.4576 165.441 11.1182C199.072 7.26164 233.004 6.7766 266.731 9.6709V11.8418L260.461 13.7715C255.257 15.5071 250.181 17.6016 245.268 20.041C244.152 20.6671 243.171 21.509 242.384 22.5176C241.596 23.5261 241.018 24.6816 240.682 25.916C240.345 27.1504 240.257 28.4394 240.423 29.708C240.589 30.9766 241.007 32.1997 241.65 33.3057C264.079 85.8795 286.748 138.453 309.177 190.786C309.177 190.786 310.624 193.198 311.83 195.368C314.483 189.58 316.895 184.998 318.824 180.175L372.363 51.1514C374.006 47.5874 375.298 43.8717 376.222 40.0576C376.935 37.2842 377.079 34.3951 376.646 31.5645C376.212 28.7338 375.211 26.0203 373.701 23.5869C372.192 21.1535 370.205 19.0507 367.861 17.4053C365.518 15.7599 362.865 14.6059 360.063 14.0127C356.858 13.4768 353.762 12.417 350.899 10.877C378.472 7.17213 406.349 6.28373 434.102 8.22461V10.6357C431.548 12.3356 428.794 13.7127 425.902 14.7354C419.054 16.8189 412.774 20.4471 407.548 25.3389C402.322 30.2306 398.287 36.2563 395.756 42.9521L333.535 184.757C325.094 204.291 316.895 223.826 308.213 243.119C306.181 246.542 303.84 249.771 301.219 252.766C298.26 249.969 295.666 246.809 293.501 243.36C278.79 210.562 264.078 177.763 249.608 144.724C241.168 125.672 232.968 106.378 225.492 87.3262C224.045 83.95 222.357 80.815 219.704 75.2686L140.601 253.489H137.948C135.381 249.279 133.046 244.931 130.954 240.466C100.567 172.94 70.3409 105.494 40.2754 38.1289C37.5418 31.111 32.777 25.0674 26.5908 20.7715C20.4046 16.4756 13.0776 14.1227 5.54688 14.0127C3.5674 13.2176 1.70216 12.1627 0 10.877V9.18945Z" fill="#F5F3EF"/>
<path d="M0 9.18945C33.9377 6.17439 68.0759 6.1744 102.014 9.18945V11.8418C97.1812 13.36 92.4319 15.1311 87.7852 17.1475C79.3443 20.7649 77.1734 25.106 80.3086 32.8232C102.014 84.6735 123.96 136.765 145.906 188.615C145.906 189.821 147.354 190.786 148.56 193.197C150.276 190.826 151.808 188.327 153.142 185.722C169.541 147.859 186.664 110.237 201.375 72.1328C204.392 66.4447 205.984 60.1095 206.014 53.6709C206.043 47.2323 204.509 40.8826 201.545 35.167C198.58 29.4513 194.272 24.5401 188.992 20.8555C183.712 17.1711 177.617 14.8231 171.229 14.0127C169.127 13.4421 167.159 12.4576 165.441 11.1182C199.072 7.26164 233.004 6.7766 266.731 9.6709V11.8418L260.461 13.7715C255.257 15.5071 250.181 17.6016 245.268 20.041C244.152 20.6671 243.171 21.509 242.384 22.5176C241.596 23.5261 241.018 24.6816 240.682 25.916C240.345 27.1504 240.257 28.4394 240.423 29.708C240.589 30.9766 241.007 32.1997 241.65 33.3057C264.079 85.8795 286.748 138.453 309.177 190.786C309.177 190.786 310.624 193.198 311.83 195.368C314.483 189.58 316.895 184.998 318.824 180.175L372.363 51.1514C374.006 47.5874 375.298 43.8717 376.222 40.0576C376.935 37.2842 377.079 34.3951 376.646 31.5645C376.212 28.7338 375.211 26.0203 373.701 23.5869C372.192 21.1535 370.205 19.0507 367.861 17.4053C365.518 15.7599 362.865 14.6059 360.063 14.0127C356.858 13.4768 353.762 12.417 350.899 10.877C378.472 7.17213 406.349 6.28373 434.102 8.22461V10.6357C431.548 12.3356 428.794 13.7127 425.902 14.7354C419.054 16.8189 412.774 20.4471 407.548 25.3389C402.322 30.2306 398.287 36.2563 395.756 42.9521L333.535 184.757C325.094 204.291 316.895 223.826 308.213 243.119C306.181 246.542 303.84 249.771 301.219 252.766C298.26 249.969 295.666 246.809 293.501 243.36C278.79 210.562 264.078 177.763 249.608 144.724C241.168 125.672 232.968 106.378 225.492 87.3262C224.045 83.95 222.357 80.815 219.704 75.2686L140.601 253.489H137.948C135.381 249.279 133.046 244.931 130.954 240.466C100.567 172.94 70.3409 105.494 40.2754 38.1289C37.5418 31.111 32.777 25.0674 26.5908 20.7715C20.4046 16.4756 13.0776 14.1227 5.54688 14.0127C3.5674 13.2176 1.70216 12.1627 0 10.877V9.18945Z" stroke="black"/>
</g>
<g id="Vector_2">
<path d="M1181.72 7.9873C1229.96 7.9873 1278.19 7.98763 1328.35 9.67578C1349.1 10.2614 1369.43 15.6378 1387.76 25.3857C1406.08 35.1337 1421.9 48.9892 1433.98 65.8672C1450.92 88.9264 1458.13 117.707 1454.07 146.026C1450.01 174.346 1435.01 199.943 1412.28 217.318C1392.29 233.329 1367.89 242.839 1342.34 244.569C1284.94 244.569 1227.3 244.57 1169.9 246.017C1167.8 245.948 1165.7 245.706 1163.63 245.293C1172.32 240.711 1180.27 236.853 1187.75 232.512C1190.22 231.194 1192.22 229.139 1193.48 226.633C1194.73 224.127 1195.17 221.293 1194.74 218.524V41.75C1195.22 34.8017 1192.96 27.943 1188.46 22.6299C1183.96 17.3167 1177.56 13.9672 1170.63 13.293L1163.15 11.6045V9.43457C1169.31 8.60237 1175.51 8.11899 1181.72 7.9873ZM1232.85 167.397C1232.85 181.385 1232.85 195.854 1235.02 209.842C1236.71 230.341 1242.26 236.371 1262.75 238.782C1292.8 242.817 1323.38 239.337 1351.74 228.653C1365.06 223.813 1376.99 215.788 1386.49 205.279C1395.99 194.77 1402.77 182.096 1406.25 168.362C1411.82 148.089 1412.73 126.816 1408.9 106.142C1406.36 85.0181 1397.12 65.2625 1382.54 49.7695C1367.96 34.2766 1348.8 23.8604 1327.87 20.0459C1297.24 15.9461 1265.65 16.4282 1232.85 14.0166V167.397Z" fill="#F5F3EF"/>
<path d="M1181.72 7.9873C1229.96 7.9873 1278.19 7.98763 1328.35 9.67578C1349.1 10.2614 1369.43 15.6378 1387.76 25.3857C1406.08 35.1337 1421.9 48.9892 1433.98 65.8672C1450.92 88.9264 1458.13 117.707 1454.07 146.026C1450.01 174.346 1435.01 199.943 1412.28 217.318C1392.29 233.329 1367.89 242.839 1342.34 244.569C1284.94 244.569 1227.3 244.57 1169.9 246.017C1167.8 245.948 1165.7 245.706 1163.63 245.293C1172.32 240.711 1180.27 236.853 1187.75 232.512C1190.22 231.194 1192.22 229.139 1193.48 226.633C1194.73 224.127 1195.17 221.293 1194.74 218.524V41.75C1195.22 34.8017 1192.96 27.943 1188.46 22.6299C1183.96 17.3167 1177.56 13.9672 1170.63 13.293L1163.15 11.6045V9.43457C1169.31 8.60237 1175.51 8.11899 1181.72 7.9873ZM1232.85 167.397C1232.85 181.385 1232.85 195.854 1235.02 209.842C1236.71 230.341 1242.26 236.371 1262.75 238.782C1292.8 242.817 1323.38 239.337 1351.74 228.653C1365.06 223.813 1376.99 215.788 1386.49 205.279C1395.99 194.77 1402.77 182.096 1406.25 168.362C1411.82 148.089 1412.73 126.816 1408.9 106.142C1406.36 85.0181 1397.12 65.2625 1382.54 49.7695C1367.96 34.2766 1348.8 23.8604 1327.87 20.0459C1297.24 15.9461 1265.65 16.4282 1232.85 14.0166V167.397Z" stroke="black"/>
</g>
<g id="Vector_3">
<path d="M602.919 253.744C581.778 255.022 560.608 251.744 540.844 244.129C521.08 236.515 503.183 224.743 488.364 209.61C475.565 197.607 465.688 182.829 459.492 166.412C453.297 149.995 450.947 132.376 452.624 114.909C454.301 97.4421 459.959 80.5923 469.165 65.6539C478.371 50.7155 490.879 38.0863 505.728 28.7368C541.544 5.95999 584.223 -3.51444 626.312 1.9675C645.992 3.33449 665.199 8.62628 682.802 17.5312C700.405 26.4361 716.048 38.774 728.809 53.8179C744.849 71.2274 754.094 93.8251 754.855 117.485C756.223 133.436 754.13 149.495 748.719 164.562C743.308 179.63 734.706 193.351 723.503 204.787C698.925 232.247 664.922 249.463 628.242 253.02C619.318 253.02 610.636 253.261 602.919 253.744ZM602.919 9.92598C580.253 8.74043 557.85 15.2385 539.336 28.3686C520.822 41.4988 507.281 60.4925 500.905 82.2754C494.034 103.255 492.054 125.528 495.117 147.39C503.076 205.028 541.904 255.432 620.524 243.856C638.303 241.548 655.045 234.182 668.758 222.633C689.44 203.567 703.338 178.274 708.344 150.593C713.349 122.912 709.188 94.3543 696.492 69.2525C688.881 50.9472 675.815 35.4314 659.072 24.8161C642.329 14.2008 622.722 9.00156 602.919 9.92598Z" fill="#F5F3EF"/>
<path d="M602.919 253.744C581.778 255.022 560.608 251.744 540.844 244.129C521.08 236.515 503.183 224.743 488.364 209.61C475.565 197.607 465.688 182.829 459.492 166.412C453.297 149.995 450.947 132.376 452.624 114.909C454.301 97.4421 459.959 80.5923 469.165 65.6539C478.371 50.7155 490.879 38.0863 505.728 28.7368C541.544 5.95999 584.223 -3.51444 626.312 1.9675C645.992 3.33449 665.199 8.62628 682.802 17.5312C700.405 26.4361 716.048 38.774 728.809 53.8179C744.849 71.2274 754.094 93.8251 754.855 117.485C756.223 133.436 754.13 149.495 748.719 164.562C743.308 179.63 734.706 193.351 723.503 204.787C698.925 232.247 664.922 249.463 628.242 253.02C619.318 253.02 610.636 253.261 602.919 253.744ZM602.919 9.92598C580.253 8.74043 557.85 15.2385 539.336 28.3686C520.822 41.4988 507.281 60.4925 500.905 82.2754C494.034 103.255 492.054 125.528 495.117 147.39C503.076 205.028 541.904 255.432 620.524 243.856C638.303 241.548 655.045 234.182 668.758 222.633C689.44 203.567 703.338 178.274 708.344 150.593C713.349 122.912 709.188 94.3543 696.492 69.2525C688.881 50.9472 675.815 35.4314 659.072 24.8161C642.329 14.2008 622.722 9.00156 602.919 9.92598Z" fill="#F5F3EF"/>
</g>
<g id="Vector_4">
<path d="M959.821 253.293C938.679 254.572 917.51 251.294 897.746 243.679C877.982 236.065 860.084 224.293 845.266 209.16C832.467 197.156 822.59 182.378 816.394 165.961C810.198 149.545 807.849 131.926 809.525 114.459C811.202 96.9919 816.861 80.1421 826.067 65.2037C835.273 50.2653 847.781 37.6361 862.63 28.2866C898.446 5.5098 941.124 -3.96463 983.214 1.5173C1002.89 2.88429 1022.1 8.17609 1039.7 17.081C1057.31 25.9859 1072.95 38.3238 1085.71 53.3677C1101.75 70.7772 1111 93.3749 1111.76 117.035C1113.12 132.986 1111.03 149.045 1105.62 164.112C1100.21 179.179 1091.61 192.901 1080.4 204.337C1055.83 231.796 1021.82 249.013 985.143 252.57C976.22 252.57 967.538 252.811 959.821 253.293ZM959.821 9.47578C937.154 8.29023 914.751 14.7883 896.238 27.9184C877.724 41.0486 864.183 60.0423 857.807 81.8252C850.935 102.804 848.956 125.077 852.019 146.94C859.977 204.578 898.805 254.981 977.426 243.405C995.205 241.098 1011.95 233.732 1025.66 222.183C1046.34 203.117 1060.24 177.824 1065.25 150.143C1070.25 122.462 1066.09 93.9041 1053.39 68.8023C1045.78 50.497 1032.72 34.9812 1015.97 24.3659C999.231 13.7506 979.624 8.55136 959.821 9.47578Z" fill="#F5F3EF"/>
<path d="M959.821 253.293C938.679 254.572 917.51 251.294 897.746 243.679C877.982 236.065 860.084 224.293 845.266 209.16C832.467 197.156 822.59 182.378 816.394 165.961C810.198 149.545 807.849 131.926 809.525 114.459C811.202 96.9919 816.861 80.1421 826.067 65.2037C835.273 50.2653 847.781 37.6361 862.63 28.2866C898.446 5.5098 941.124 -3.96463 983.214 1.5173C1002.89 2.88429 1022.1 8.17609 1039.7 17.081C1057.31 25.9859 1072.95 38.3238 1085.71 53.3677C1101.75 70.7772 1111 93.3749 1111.76 117.035C1113.12 132.986 1111.03 149.045 1105.62 164.112C1100.21 179.179 1091.61 192.901 1080.4 204.337C1055.83 231.796 1021.82 249.013 985.143 252.57C976.22 252.57 967.538 252.811 959.821 253.293ZM959.821 9.47578C937.154 8.29023 914.751 14.7883 896.238 27.9184C877.724 41.0486 864.183 60.0423 857.807 81.8252C850.935 102.804 848.956 125.077 852.019 146.94C859.977 204.578 898.805 254.981 977.426 243.405C995.205 241.098 1011.95 233.732 1025.66 222.183C1046.34 203.117 1060.24 177.824 1065.25 150.143C1070.25 122.462 1066.09 93.9041 1053.39 68.8023C1045.78 50.497 1032.72 34.9812 1015.97 24.3659C999.231 13.7506 979.624 8.55136 959.821 9.47578Z" fill="#F5F3EF"/>
</g>
<g id="Vector_5">
<path d="M1567.59 2.67383C1588.02 -0.432637 1608.88 0.716523 1628.85 6.0498C1638.25 8.22029 1647.66 12.3201 1652.96 0.985352C1660.97 19.902 1661.23 41.2062 1653.69 60.3125C1650.78 55.7158 1648.12 50.966 1645.73 46.084C1641.94 35.4932 1634.86 26.3895 1625.54 20.0996C1616.21 13.8099 1605.12 10.6614 1593.88 11.1143C1581.62 10.3524 1569.33 11.5747 1557.46 14.7324C1551.96 16.5748 1547.03 19.8246 1543.17 24.1592C1539.31 28.4938 1536.65 33.7625 1535.46 39.4424C1534.26 45.1225 1534.57 51.0167 1536.36 56.5391C1538.15 62.0613 1541.35 67.0206 1545.64 70.9238C1560.34 82.6051 1575.72 93.3958 1591.71 103.239C1609.79 115.297 1629.09 125.668 1646.69 138.208C1656.76 144.408 1664.56 153.704 1668.9 164.703C1673.25 175.702 1673.92 187.812 1670.81 199.223C1667.79 211.807 1661.27 223.283 1652.01 232.328C1642.75 241.373 1631.13 247.62 1618.48 250.35C1593.59 255.765 1567.72 254.517 1543.47 246.732C1539.3 245.181 1534.9 244.287 1530.45 244.08C1523 245.359 1515.66 247.212 1508.5 249.626C1505.14 229.023 1505.14 208.01 1508.5 187.406H1511.4C1513.58 190.927 1515.44 194.641 1516.95 198.5C1520.49 208.489 1526.18 217.578 1533.62 225.124C1541.06 232.67 1550.07 238.489 1560.01 242.17C1569.95 245.851 1580.57 247.303 1591.13 246.425C1601.7 245.546 1611.94 242.358 1621.13 237.086C1626.01 234.448 1630.24 230.757 1633.52 226.28C1636.79 221.804 1639.03 216.654 1640.07 211.205C1641.11 205.756 1640.92 200.144 1639.52 194.776C1638.12 189.409 1635.55 184.419 1631.98 180.171C1623.49 170.844 1613.75 162.73 1603.04 156.055C1582.78 143.273 1561.32 131.938 1541.3 119.156C1528.37 111.88 1518.44 100.253 1513.27 86.3438C1508.11 72.4343 1508.04 57.1432 1513.09 43.1895C1516.99 31.7062 1524.3 21.6813 1534.03 14.4453C1543.76 7.20939 1555.47 3.10399 1567.59 2.67383Z" fill="#F5F3EF"/>
<path d="M1567.59 2.67383C1588.02 -0.432637 1608.88 0.716523 1628.85 6.0498C1638.25 8.22029 1647.66 12.3201 1652.96 0.985352C1660.97 19.902 1661.23 41.2062 1653.69 60.3125C1650.78 55.7158 1648.12 50.966 1645.73 46.084C1641.94 35.4932 1634.86 26.3895 1625.54 20.0996C1616.21 13.8099 1605.12 10.6614 1593.88 11.1143C1581.62 10.3524 1569.33 11.5747 1557.46 14.7324C1551.96 16.5748 1547.03 19.8246 1543.17 24.1592C1539.31 28.4938 1536.65 33.7625 1535.46 39.4424C1534.26 45.1225 1534.57 51.0167 1536.36 56.5391C1538.15 62.0613 1541.35 67.0206 1545.64 70.9238C1560.34 82.6051 1575.72 93.3958 1591.71 103.239C1609.79 115.297 1629.09 125.668 1646.69 138.208C1656.76 144.408 1664.56 153.704 1668.9 164.703C1673.25 175.702 1673.92 187.812 1670.81 199.223C1667.79 211.807 1661.27 223.283 1652.01 232.328C1642.75 241.373 1631.13 247.62 1618.48 250.35C1593.59 255.765 1567.72 254.517 1543.47 246.732C1539.3 245.181 1534.9 244.287 1530.45 244.08C1523 245.359 1515.66 247.212 1508.5 249.626C1505.14 229.023 1505.14 208.01 1508.5 187.406H1511.4C1513.58 190.927 1515.44 194.641 1516.95 198.5C1520.49 208.489 1526.18 217.578 1533.62 225.124C1541.06 232.67 1550.07 238.489 1560.01 242.17C1569.95 245.851 1580.57 247.303 1591.13 246.425C1601.7 245.546 1611.94 242.358 1621.13 237.086C1626.01 234.448 1630.24 230.757 1633.52 226.28C1636.79 221.804 1639.03 216.654 1640.07 211.205C1641.11 205.756 1640.92 200.144 1639.52 194.776C1638.12 189.409 1635.55 184.419 1631.98 180.171C1623.49 170.844 1613.75 162.73 1603.04 156.055C1582.78 143.273 1561.32 131.938 1541.3 119.156C1528.37 111.88 1518.44 100.253 1513.27 86.3438C1508.11 72.4343 1508.04 57.1432 1513.09 43.1895C1516.99 31.7062 1524.3 21.6813 1534.03 14.4453C1543.76 7.20939 1555.47 3.10399 1567.59 2.67383Z" stroke="black"/>
</g>
</g>
</g>
</svg>
