<svg width="1676" height="3549" viewBox="0 0 1676 3549" fill="none" xmlns="http://www.w3.org/2000/svg">
<g id="Layer 2">
<g id="Layer 1">
<path id="Vector" d="M1133.49 0C1137.35 5.78795 1135.18 9.16426 1129.63 11.8171C1109.33 22.2723 1093.15 39.2648 1083.7 60.0501C1074.24 80.8355 1072.07 104.2 1077.54 126.37C1085.25 152.657 1095.62 177.98 1105.27 203.543C1108.17 211.26 1113.23 213.672 1119.5 208.849C1132.14 199.807 1144.08 189.809 1155.19 178.944C1159.05 175.086 1159.05 167.609 1160.26 161.58C1161.1 156.713 1161.66 151.801 1161.95 146.869C1164.6 146.869 1165.8 146.869 1166.53 146.869C1167.25 146.869 1174.49 154.345 1177.14 153.622C1182.31 151.813 1186.95 148.747 1190.64 144.699C1200.08 133.934 1212.51 126.213 1226.34 122.512C1230.25 121.909 1234.24 121.909 1238.15 122.512L1241.05 127.576C1237.91 129.264 1234.54 130.952 1231.64 132.882C1164.79 175.407 1113.05 237.944 1083.81 311.585C1072.95 337.872 1062.34 364.4 1051.97 390.928C1050.86 395.339 1050.37 399.886 1050.53 404.433C1054.93 403.484 1059.28 402.276 1063.55 400.816C1069.1 398.886 1074.16 395.751 1079.47 393.822C1080.45 393.509 1081.5 393.456 1082.52 393.667C1083.53 393.878 1084.47 394.347 1085.25 395.028C1085.78 395.944 1086.06 396.984 1086.06 398.042C1086.06 399.101 1085.78 400.14 1085.25 401.057C1082.18 404.651 1078.79 407.96 1075.13 410.945C1073.08 412.82 1070.81 414.44 1068.37 415.768C1054.63 423.775 1042.73 434.595 1033.47 447.521C1024.2 460.446 1017.77 475.185 1014.59 490.77C1013.77 493.609 1013.21 496.514 1012.9 499.452C1016.91 499.857 1020.95 499.857 1024.96 499.452C1059.43 491.591 1091.11 474.501 1116.61 450.013C1130.11 436.749 1143.38 423.244 1156.4 409.257C1166.19 398.687 1173.66 386.195 1178.36 372.576C1183.05 358.957 1184.85 344.509 1183.65 330.154C1182.54 324.73 1180.76 319.464 1178.35 314.479C1175.86 307.794 1173.85 300.945 1172.32 293.98C1172.32 291.809 1174.97 289.157 1176.42 286.745C1178.34 288.433 1181.48 289.88 1182.44 292.292C1185.58 299.768 1187.99 307.967 1191.13 316.408C1191.78 317.493 1192.7 318.394 1193.8 319.026C1194.89 319.659 1196.13 320.003 1197.4 320.026C1203.19 320.026 1210.18 320.026 1212.11 311.585L1221.51 277.098C1221.51 275.892 1221.51 274.928 1224.89 273.722C1226.09 279.278 1226.81 284.925 1227.06 290.603C1227.06 299.768 1227.06 305.797 1238.64 308.932C1247.67 312.537 1256.38 316.893 1264.68 321.955C1260.69 323.208 1256.56 323.938 1252.38 324.125C1237.53 323.149 1222.84 327.702 1211.14 336.907C1208.73 338.818 1206.96 341.429 1206.08 344.383C1203.43 351.859 1201.01 359.577 1198.84 368.5C1198.84 370.911 1198.84 374.529 1198.84 375.976C1200.02 376.63 1201.35 376.974 1202.7 376.974C1204.05 376.974 1205.38 376.63 1206.56 375.976C1211.28 372.831 1215.64 369.193 1219.58 365.123C1222 362.953 1223.44 358.853 1225.86 357.888C1229.43 357.334 1233.09 358.015 1236.23 359.818C1236.92 361.158 1237.29 362.647 1237.29 364.159C1237.29 365.67 1236.92 367.159 1236.23 368.5C1226.13 377.543 1215.58 386.075 1204.63 394.063C1191.13 403.951 1175.45 411.186 1169.42 428.55C1169.1 429.637 1168.52 430.63 1167.73 431.444C1148.2 449.772 1128.91 468.342 1109.37 486.429C1107.92 488.117 1105.51 488.6 1100.69 491.253C1107.2 493.664 1111.78 495.835 1116.61 497.282C1121.43 498.729 1131.8 500.899 1133.73 512.716C1127.46 511.51 1122.39 511.028 1117.57 509.822C1101.42 505.836 1084.38 507.539 1069.34 514.646C1056.12 521.297 1041.67 525.156 1026.89 525.98C1018.87 526.437 1011.05 528.637 1003.97 532.428C996.889 536.218 990.72 541.507 985.893 547.926C974.799 561.431 964.67 575.901 954.3 590.13C949.236 596.642 944.412 603.876 938.865 609.906C903.377 648.188 879.971 696.089 871.58 747.611C867.193 767.448 864.451 787.613 863.38 807.902C864.751 830.408 867.571 852.802 871.821 874.946C872.137 877.448 873.334 879.757 875.197 881.457C877.979 884.403 881.599 886.424 885.567 887.245C887.497 887.245 890.15 881.939 891.355 878.563C894.973 868.675 897.867 858.788 901.726 846.97C908.961 857.099 913.543 852.035 917.402 846.97C928.736 831.777 940.071 816.584 950.683 800.908C957.371 788.212 960.692 774.014 960.329 759.669C962.5 737.482 964.429 715.295 966.6 693.107C966.81 690.366 968.01 687.795 969.976 685.872L972.87 714.089H976.246C987.969 697.801 997.158 679.831 1003.5 660.791C1006.62 664.85 1008.66 669.636 1009.42 674.699C1010.18 679.762 1009.63 684.936 1007.84 689.731C1004.6 701.562 999.816 712.914 993.611 723.494C983.125 740.49 979.182 760.72 982.517 780.409C986.75 780.78 990.945 781.507 995.057 782.58C997.578 783.441 999.657 785.261 1000.85 787.644C1000.85 789.332 1000.85 793.191 998.675 793.914C982.628 804.695 968.793 818.447 957.918 834.43C940.071 858.546 923.431 881.216 906.549 904.368C908.496 906.656 910.917 908.494 913.645 909.755C916.372 911.015 919.341 911.668 922.345 911.668C925.35 911.668 928.319 911.015 931.046 909.755C933.774 908.494 936.195 906.656 938.142 904.368C946.101 895.686 953.336 886.522 960.571 877.357L967.323 867.952L971.182 870.363C971.832 873.546 971.832 876.827 971.182 880.01C964.65 892.604 957.32 904.767 949.236 916.426C944.969 920.763 939.651 923.92 933.801 925.59C930.086 926.937 926.176 927.67 922.225 927.761C910.448 927.661 899.042 931.873 890.157 939.603C881.272 947.333 875.522 958.046 873.991 969.723C870.098 983.436 867.514 997.486 866.274 1011.69C862.656 1090.55 859.28 1169.65 857.351 1248.75C855.548 1301.29 858.941 1353.88 867.48 1405.75C868.425 1410.97 869.714 1416.13 871.339 1421.18C871.536 1422.42 872.053 1423.59 872.839 1424.57C873.625 1425.55 874.653 1426.31 875.821 1426.77C876.989 1427.24 878.257 1427.39 879.501 1427.21C880.745 1427.03 881.921 1426.54 882.915 1425.77C886.152 1423.57 889.741 1421.94 893.526 1420.94C895.23 1420.68 896.969 1420.79 898.631 1421.24C900.293 1421.7 901.84 1422.5 903.173 1423.6C904.62 1425.04 903.173 1429.87 903.173 1432.52C901.279 1436.59 898.756 1440.33 895.696 1443.61C888.144 1451.54 882.69 1461.23 879.826 1471.8C876.963 1482.37 876.781 1493.49 879.297 1504.14C882.915 1524.88 886.05 1545.87 889.667 1566.85V1571.67C890.136 1579.17 892.633 1586.4 896.89 1592.59C901.148 1598.78 907.006 1603.69 913.84 1606.81C920.675 1609.93 928.228 1611.14 935.693 1610.3C943.159 1609.46 950.257 1606.61 956.23 1602.06C971.96 1592.03 986.662 1580.48 1000.12 1567.57C1028.98 1542.1 1053.42 1512.03 1072.47 1478.58C1077.33 1466.23 1080.34 1453.23 1081.4 1439.99C1081.4 1433.24 1081.4 1426.49 1083.32 1419.98C1083.97 1418.43 1085 1417.07 1086.3 1416.02C1087.61 1414.97 1089.15 1414.26 1090.8 1413.95C1092.73 1413.95 1096.35 1417.33 1097.31 1419.74C1099.48 1426.97 1100.69 1434.69 1102.38 1442.17L1106.48 1444.58C1107.92 1441.68 1109.37 1438.79 1111.06 1435.89L1135.18 1398.27C1137.51 1394.76 1139.06 1390.79 1139.73 1386.63C1140.39 1382.47 1140.16 1378.22 1139.03 1374.16C1137.8 1361.33 1132.95 1349.12 1125.05 1338.95C1120.95 1334.85 1122.39 1326.65 1126.98 1325.44C1135.66 1323.27 1133.49 1317.72 1132.52 1312.18C1130.11 1300.36 1127.46 1288.06 1125.29 1276.24C1125.29 1270.7 1125.29 1265.15 1123.84 1259.6C1120.71 1237.9 1118.78 1215.71 1113.95 1194.49C1110.9 1184.24 1105.26 1174.95 1097.57 1167.51C1089.88 1160.08 1080.41 1154.75 1070.06 1152.04C1061.38 1148.67 1058.24 1145.29 1058.97 1133.47L1089.35 1144.09C1095.93 1137.57 1100.25 1129.12 1101.65 1119.97C1104.55 1105.74 1109.13 1091.99 1113.23 1078.25C1117.53 1068.33 1118.04 1057.18 1114.66 1046.91C1111.28 1036.64 1104.25 1027.97 1094.9 1022.54C1081.88 1012.9 1069.69 1002.17 1058.48 990.464C1056.07 988.293 1056.07 984.193 1054.87 981.058C1058.97 981.058 1063.55 978.646 1066.93 981.058C1071.67 983.987 1076.11 987.38 1080.19 991.187C1092.73 1000.83 1104.31 1010.96 1118.05 1019.64C1131.8 1028.33 1130.59 1024.23 1131.08 1013.13C1131.56 1002.04 1131.08 984.917 1131.08 970.688C1131.07 966.738 1129.9 962.878 1127.7 959.594C1121.19 950.913 1123.6 942.713 1129.87 933.307C1133.43 939.641 1136.26 946.355 1138.31 953.324C1144.25 975.724 1145.89 999.047 1143.13 1022.06C1140.72 1034.36 1138.31 1046.17 1136.38 1058.95C1136.38 1066.43 1136.38 1073.67 1142.65 1076.8C1133.97 1091.99 1125.05 1106.7 1116.85 1121.66C1113.54 1126.49 1111.77 1132.2 1111.78 1138.06C1113.21 1150 1118.16 1161.25 1126.01 1170.37C1129.63 1173.99 1132.52 1171.58 1134.69 1168.2C1143.13 1156.14 1150.85 1144.09 1160.02 1131.79C1165.94 1124.58 1170.34 1116.25 1172.95 1107.3C1175.56 1098.34 1176.33 1088.95 1175.21 1079.69C1174.13 1070.56 1174.13 1061.33 1175.21 1052.2C1175.21 1049.07 1178.83 1046.41 1181 1043.52C1183.5 1046.06 1185.69 1048.89 1187.51 1051.96C1188.48 1055.74 1188.97 1059.63 1188.96 1063.54C1188.96 1069.08 1188.96 1074.63 1188.96 1080.18C1188.96 1093.68 1193.06 1095.61 1206.08 1092.72C1209.94 1092.72 1214.04 1091.27 1220.07 1090.31C1219.05 1094.04 1217.67 1097.68 1215.97 1101.16C1214.02 1104.29 1211.38 1106.93 1208.25 1108.88C1187.11 1124.03 1170.45 1144.61 1160.02 1168.44C1143.28 1194.72 1136.53 1226.12 1140.96 1256.95C1142.89 1270.46 1143.38 1283.96 1144.58 1297.47C1144.58 1297.47 1144.58 1299.4 1144.58 1300.12C1152.69 1316.23 1159.15 1333.12 1163.87 1350.52C1167.01 1357.52 1172.07 1360.65 1179.07 1356.31C1188.37 1350.34 1197.31 1343.82 1205.84 1336.78C1206.38 1336.33 1206.84 1335.78 1207.17 1335.16C1207.5 1334.54 1207.7 1333.86 1207.77 1333.16C1209.46 1319.41 1210.66 1305.67 1212.83 1292.16C1214.23 1284.66 1216.08 1277.25 1218.38 1269.97C1219.06 1268.18 1219.54 1266.32 1219.83 1264.43C1221.1 1247.16 1219.05 1229.8 1213.8 1213.3C1213.48 1211.77 1213.54 1210.18 1213.96 1208.67C1214.38 1207.16 1215.15 1205.77 1216.21 1204.62C1218.14 1202.21 1222 1201.48 1224.41 1199.31C1226.82 1197.14 1235.98 1192.32 1238.88 1187.01C1246.35 1173.27 1252.14 1158.56 1258.65 1144.33C1259.33 1142.19 1260.31 1140.16 1261.55 1138.3C1272.89 1124.75 1279.27 1107.73 1279.64 1090.06C1279.64 1082.83 1283.01 1078.01 1290.97 1077.28C1294.08 1076.98 1296.96 1075.47 1298.98 1073.09C1301.01 1070.7 1302.03 1067.62 1301.82 1064.5C1303.95 1041.56 1301.41 1018.42 1294.35 996.493C1290.25 984.917 1283.49 974.305 1278.19 962.971C1275.99 956.097 1273.08 949.469 1269.51 943.195C1257.32 928.149 1244.1 913.966 1229.95 900.75C1214.9 885.737 1203.01 867.86 1194.99 848.176C1194.99 846.247 1194.99 841.665 1196.19 840.941C1197.44 840.222 1198.85 839.843 1200.29 839.843C1201.73 839.843 1203.14 840.222 1204.39 840.941C1208.2 844.484 1211.6 848.449 1214.52 852.758C1221.51 862.887 1227.78 873.257 1235.02 883.386C1237.99 887.006 1241.39 890.246 1245.15 893.033C1245.56 889.427 1245.56 885.787 1245.15 882.181C1241.29 868.193 1236.23 854.447 1232.85 840.459C1229.68 827.224 1227.59 813.756 1226.58 800.185C1226.2 782.984 1219.7 766.482 1208.25 753.64C1202.7 747.611 1197.64 741.099 1191.13 733.382C1205.84 731.211 1213.07 741.34 1223.68 747.128C1224.98 743.306 1225.79 739.336 1226.1 735.311C1226.1 718.671 1224.17 702.031 1222.24 685.39C1221.2 679.051 1218.9 672.984 1215.48 667.544C1206.56 652.592 1197.88 637.64 1187.99 623.652C1182.18 617.08 1175.8 611.028 1168.94 605.565C1165.8 602.671 1162.91 599.535 1159.78 596.4C1163.05 593.833 1166.61 591.649 1170.39 589.889C1173.9 588.958 1177.09 587.102 1179.63 584.514C1182.18 581.926 1183.98 578.701 1184.86 575.178C1187.03 566.978 1187.99 558.779 1190.16 551.061C1191.44 548.038 1193.23 545.263 1195.47 542.862C1196.91 545.756 1199.81 548.65 1199.81 551.544C1199.81 565.049 1199.81 578.554 1197.64 591.818C1197.12 601.176 1198.69 610.532 1202.24 619.208C1205.78 627.884 1211.21 635.663 1218.14 641.981C1227.3 651.627 1233.81 652.351 1242.25 643.427C1256.87 631.479 1270.06 617.884 1281.56 602.912C1288.32 595.319 1293.27 586.304 1296.07 576.536C1298.87 566.768 1299.43 556.495 1297.72 546.479C1296.51 540.43 1296.51 534.2 1297.72 528.151C1299.12 524.198 1301.07 520.463 1303.51 517.057H1307.13C1308.03 521.51 1308.6 526.024 1308.82 530.562C1308.82 542.138 1308.82 553.473 1308.82 565.049C1309.41 569.198 1310.55 573.252 1312.19 577.107C1315.57 574.937 1318.95 572.766 1322.08 570.355C1325.22 567.943 1330.52 561.914 1334.62 557.814L1337.52 559.02C1337.52 562.637 1337.52 566.978 1335.59 569.39C1327.87 578.072 1319.43 586.03 1311.47 593.506L1281.32 623.17C1275.78 628.716 1270.23 634.263 1265.17 640.051C1254.34 650.764 1244.64 662.563 1236.23 675.261C1233.76 680.931 1232.49 687.047 1232.49 693.228C1232.49 699.41 1233.76 705.525 1236.23 711.195C1238.4 717.307 1240.01 723.603 1241.05 730.006C1242.25 746.887 1241.05 763.528 1242.98 780.409C1244.3 786.832 1246.41 793.068 1249.25 798.979C1249.25 800.667 1250.94 802.355 1251.66 804.284C1255.04 815.137 1257.69 816.101 1266.13 807.661C1277.79 796.91 1286.61 783.452 1291.83 768.477C1297.05 753.502 1298.49 737.472 1296.03 721.806C1296.03 713.365 1293.62 704.683 1292.66 696.243C1292.66 693.59 1292.66 690.937 1292.66 688.284L1295.31 686.355C1298.38 689.251 1301.2 692.397 1303.75 695.76C1308.58 702.995 1311.71 703.719 1316.78 695.76C1321.32 689.077 1325.51 682.153 1329.32 675.02C1335.67 659.788 1346.1 646.603 1359.46 636.916C1360.91 636.916 1361.39 633.057 1361.87 630.887C1363.74 624.619 1367.26 618.965 1372.05 614.512C1376.84 610.059 1382.74 606.97 1389.13 605.565C1390.55 605.488 1391.97 605.755 1393.27 606.343C1394.58 606.93 1395.72 607.821 1396.6 608.941C1396.93 610.325 1396.87 611.771 1396.45 613.129C1396.02 614.486 1395.24 615.705 1394.19 616.658C1378.12 628.491 1365.07 643.941 1356.09 661.756C1343.3 684.425 1331.97 708.301 1321.12 731.935C1319.17 736.573 1317.79 741.432 1317.02 746.405C1315.57 752.434 1317.02 755.81 1324.25 756.775C1331.49 757.74 1333.17 761.357 1328.83 767.627C1326.25 771.26 1323.26 774.578 1319.91 777.515C1313.16 783.544 1305.92 789.332 1299.17 795.602C1286.23 807.535 1276.52 822.553 1270.95 839.253C1268.13 844.318 1266.41 849.925 1265.91 855.704C1265.41 861.482 1266.14 867.301 1268.06 872.775C1274.43 885.039 1279.13 898.096 1282.05 911.603C1282.52 914.34 1283.68 916.913 1285.42 919.079C1288.14 921.997 1291.04 924.736 1294.11 927.278C1296.52 924.626 1299.41 921.973 1301.58 919.079C1303.75 916.185 1304.23 913.291 1306.16 912.326C1307.36 911.731 1308.68 911.422 1310.02 911.422C1311.36 911.422 1312.68 911.731 1313.88 912.326C1316.11 915.232 1317.32 918.792 1317.32 922.455C1317.32 926.118 1316.11 929.678 1313.88 932.584C1309.72 936.702 1307.04 942.081 1306.25 947.883C1305.47 953.684 1306.62 959.583 1309.54 964.659C1310.75 966.347 1312.43 968.035 1312.43 969.723C1312.43 987.57 1326.66 1000.35 1330.28 1017.96C1330.28 1021.33 1333.17 1024.47 1334.86 1028.57C1338.31 1026.67 1341.54 1024.4 1344.51 1021.81C1356.33 1008.31 1368.63 994.563 1379.72 980.817C1384.54 975.511 1389.37 969.965 1393.95 964.418C1419.94 935.417 1434.88 898.19 1436.15 859.27C1435.57 848.201 1433.54 837.256 1430.12 826.713C1425.25 812.948 1424.09 798.143 1426.75 783.785L1439.53 812.002H1442.42C1445.32 791.985 1449.18 771.968 1451.35 751.952C1454 727.835 1455.69 703.719 1457.13 679.602C1458.22 665.636 1458.22 651.606 1457.13 637.64C1456.31 630.008 1453.57 622.708 1449.18 616.417C1434.22 594.953 1418.55 573.972 1402.63 552.991C1384.74 529.023 1370.52 502.526 1360.43 474.371C1357.92 467.033 1354.6 459.996 1350.54 453.39C1348.26 450.173 1346.8 446.446 1346.3 442.536C1345.8 438.626 1346.26 434.652 1347.64 430.961L1374.66 458.213C1379.24 449.531 1383.34 442.296 1386.96 434.097C1392.5 422.762 1397.57 411.186 1403.11 400.092C1404.95 395.992 1407.48 392.239 1410.59 388.999C1412.28 387.552 1416.14 387.793 1418.79 387.311C1421.44 386.828 1418.79 392.857 1418.79 394.787C1409.14 416.974 1400.22 439.884 1388.88 461.107C1383.83 469.186 1381.78 478.79 1383.1 488.229C1384.43 497.668 1389.04 506.339 1396.12 512.716C1407.2 524.764 1416.76 538.128 1424.58 552.508C1435.16 571.733 1449.23 588.823 1466.06 602.912C1473.29 609.423 1475.46 609.423 1480.05 600.982C1494.04 579.276 1502.33 554.393 1504.16 528.633C1504.42 525.487 1505.16 522.398 1506.33 519.469H1508.5C1510.01 522.128 1511.38 524.865 1512.6 527.668C1515.74 535.386 1518.87 537.074 1525.63 531.768C1532.38 526.463 1541.06 518.745 1549.74 512.475C1553.12 509.34 1556.98 506.687 1560.6 503.793L1563.25 505.24C1562.55 508.854 1561.33 512.348 1559.63 515.61C1549.74 529.839 1539.37 543.585 1529.24 557.814C1526.76 561.863 1524.5 566.05 1522.49 570.355C1527.15 570.709 1531.82 570.709 1536.48 570.355C1542.51 570.355 1549.02 566.737 1552.88 573.49C1550.01 577.581 1546.09 580.829 1541.54 582.895C1531.05 587.479 1521.57 594.104 1513.67 602.384C1505.76 610.665 1499.58 620.436 1495.48 631.128C1483.91 658.766 1478.09 688.469 1478.36 718.43C1478.36 742.546 1476.43 766.663 1474.98 790.779C1474.98 797.773 1472.57 805.008 1471.6 812.243C1470.75 815.719 1470.27 819.276 1470.16 822.854C1470.16 837.083 1472.81 838.771 1486.56 835.153C1490.17 835.153 1494.27 833.706 1498.13 832.983L1499.58 835.636C1496.99 839.188 1494 842.425 1490.66 845.282C1470.25 860.93 1456.62 883.8 1452.55 909.191C1450.62 918.596 1454 921.973 1463.41 919.561C1470.27 917.393 1476.63 913.862 1482.1 909.179C1487.57 904.497 1492.04 898.759 1495.24 892.309C1497.17 889.415 1498.86 886.28 1501.27 882.422L1504.64 887.004C1508.5 895.445 1510.92 896.65 1518.15 890.621C1559.97 858.641 1590 813.686 1603.52 762.804C1605.22 756.042 1605.34 748.983 1603.87 742.168C1602.41 735.353 1599.4 728.965 1595.08 723.494C1589.89 716.23 1585.14 708.66 1580.85 700.825C1579.49 697.41 1578.52 693.849 1577.96 690.213L1581.34 688.284L1591.95 701.548C1594.63 705.538 1597.79 709.182 1601.35 712.401C1609.79 717.465 1615.82 715.053 1618.72 705.648C1621.61 696.243 1624.51 684.667 1627.16 674.297C1627.16 671.644 1628.85 669.232 1629.57 666.579H1632.46C1632.46 670.92 1634.15 675.261 1634.39 679.602C1634.39 693.349 1639.22 695.76 1652 690.937L1663.82 686.355C1664.95 685.748 1666.22 685.435 1667.51 685.445C1668.8 685.454 1670.06 685.786 1671.19 686.409C1672.31 687.032 1673.27 687.927 1673.96 689.013C1674.65 690.099 1675.06 691.341 1675.15 692.625C1675.15 695.037 1671.53 698.895 1668.88 701.548C1666.23 704.201 1665.02 702.754 1663.09 702.995C1651.14 705.082 1640.3 711.293 1632.46 720.546C1624.62 729.8 1620.27 741.51 1620.16 753.64C1620.97 757.905 1622.35 762.043 1624.26 765.939C1628.01 764.614 1631.57 762.832 1634.88 760.634C1641.63 755.569 1647.66 749.54 1654.17 744.234C1656.82 742.305 1660.2 741.099 1663.09 739.411L1665.26 741.34C1663.82 744.234 1663.33 748.093 1661.16 750.263C1652.24 760.236 1642.57 769.508 1632.22 777.997C1621.17 785.552 1611.8 795.325 1604.73 806.696L1555.29 887.486C1552.15 892.792 1552.15 892.792 1562.04 904.368C1558.45 906.782 1554.66 908.88 1550.71 910.638C1526.59 919.561 1499.82 928.484 1474.02 937.166C1459.34 941.852 1446.07 950.144 1435.43 961.283C1379.78 1016.43 1333.51 1080.29 1298.45 1150.36C1282.77 1182.91 1270.47 1217.4 1257.93 1251.16C1251.42 1271.55 1249.21 1293.06 1251.42 1314.35C1252.14 1317.43 1253.19 1320.42 1254.55 1323.27C1257.69 1321.58 1262.27 1320.86 1264.2 1318.21C1271.68 1308.08 1278.19 1297.47 1285.18 1287.1C1286.72 1284.14 1288.49 1281.32 1290.49 1278.66C1294.59 1273.83 1298.69 1274.8 1299.41 1281.07C1300.13 1287.34 1305.44 1290.47 1311.23 1287.82C1324.11 1282.51 1336.6 1276.3 1348.61 1269.25C1353.82 1265.06 1357.54 1259.31 1359.22 1252.85C1366.21 1228.73 1371.52 1204.62 1379 1181.95C1385.84 1164.48 1388.32 1145.61 1386.23 1126.96C1385.39 1114.89 1388.89 1102.91 1396.12 1093.2C1397.52 1091.4 1399.05 1089.71 1400.7 1088.14H1403.35C1403.35 1093.92 1401.91 1099.71 1400.94 1105.5C1399.65 1110.33 1398.69 1115.25 1398.05 1120.21C1398.05 1126.72 1400.94 1128.65 1406.25 1125.27C1411.55 1121.9 1414.93 1118.28 1419.51 1115.15C1421.38 1114.19 1423.45 1113.69 1425.54 1113.7C1425.89 1115.94 1425.89 1118.21 1425.54 1120.45C1425.09 1122.36 1424.27 1124.16 1423.13 1125.76L1396.84 1173.99C1393.78 1178.28 1391.19 1182.89 1389.13 1187.74C1387.89 1192.07 1387.89 1196.67 1389.13 1201C1389.13 1202.21 1395.88 1202.69 1398.77 1201C1414.1 1197.16 1427.89 1188.75 1438.32 1176.88C1438.32 1176.88 1441.46 1176.88 1443.15 1175.44C1444.84 1173.99 1443.15 1179.05 1443.15 1180.02C1441.71 1182.72 1439.84 1185.17 1437.6 1187.25C1426.75 1197.38 1415.9 1207.51 1404.8 1217.16C1391.58 1228.46 1381.52 1243 1375.62 1259.36C1373.71 1265.45 1373.38 1271.92 1374.66 1278.17C1375.2 1280.95 1374.81 1283.83 1373.55 1286.36C1372.28 1288.89 1370.21 1290.93 1367.66 1292.16C1359.22 1296.26 1350.54 1299.15 1343.54 1303.5C1328.11 1311.45 1312.68 1319.65 1297.96 1329.06C1293.14 1331.95 1291.21 1339.19 1288.08 1344.49C1294.34 1344.85 1300.62 1344.85 1306.89 1344.49C1311.73 1344.13 1316.51 1343.16 1321.12 1341.6L1322.8 1344.25C1320.39 1346.91 1318.46 1350.28 1315.81 1352.69C1307.85 1359 1297.99 1362.4 1287.84 1362.34C1279.15 1362.34 1270.71 1362.34 1262.03 1362.34C1243.87 1364.16 1227.08 1372.77 1215 1386.46C1208.84 1392.9 1203.12 1399.74 1197.88 1406.95C1167.84 1449.26 1135.05 1489.54 1099.72 1527.54C1084.97 1541 1074.07 1558.15 1068.13 1577.22C1068.13 1579.15 1068.13 1580.83 1068.13 1582.76C1068.02 1584.21 1068.02 1585.66 1068.13 1587.1H1071.51L1081.15 1591.2C1079.47 1595.55 1078.74 1601.57 1075.61 1603.75C1069.82 1607.12 1063.43 1609.33 1056.8 1610.26C1046.73 1612.57 1037.48 1617.57 1030.03 1624.73C1017.73 1636.06 1004.7 1646.67 991.44 1656.8C966.742 1674.75 946.657 1698.31 932.836 1725.53C927.264 1737.85 924.94 1751.38 926.084 1764.84C926.084 1776.18 928.495 1787.51 928.254 1799.09C927.928 1810.96 926.881 1822.8 925.119 1834.54C921.501 1852.15 916.437 1866.86 916.437 1881.08C916.437 1940.41 916.437 1999.5 916.437 2058.82C916.437 2060.99 916.437 2063.16 916.437 2065.09C935.73 2065.09 954.541 2062.2 973.352 2062.2C1003.7 2061.74 1033.53 2070.12 1059.21 2086.32C1076.37 2095.89 1090.8 2109.68 1101.15 2126.39C1111.49 2143.1 1117.4 2162.17 1118.32 2181.8C1119.23 2201.43 1115.13 2220.97 1106.39 2238.57C1097.65 2256.17 1084.57 2271.25 1068.37 2282.38C1042.58 2303.33 1010.44 2314.89 977.211 2315.18C957.194 2315.18 937.177 2312.05 917.402 2310.12C913.99 2309.67 910.608 2309.03 907.272 2308.19C907.272 2323.14 907.272 2336.89 907.272 2350.87C907.272 2423.22 905.584 2495.57 907.272 2567.92C909.176 2586.2 913.558 2604.13 920.296 2621.22C930.285 2652.28 943.543 2682.19 959.847 2710.45C964.67 2719.13 969.011 2727.81 974.076 2736.25C995.174 2773.15 1007.47 2814.41 1010.01 2856.84C1017.5 2941.38 1017.9 3026.41 1011.22 3111.02C1006.63 3183.37 1003.26 3257.65 998.675 3330.97C994.656 3395.28 990.154 3459.99 985.17 3525.1C984.398 3531.36 982.257 3537.37 978.899 3542.71C977.765 3544.36 976.257 3545.73 974.497 3546.69C972.737 3547.66 970.775 3548.19 968.77 3548.26C966.844 3547.65 965.093 3546.59 963.666 3545.16C962.238 3543.73 961.176 3541.98 960.571 3540.06C957.807 3528.99 956.111 3517.68 955.506 3506.29C953.577 3421.89 951.888 3337.48 950.441 3253.07C948.994 3174.69 948.03 3096.07 946.824 3017.45C946.495 3007.98 945.447 2998.55 943.689 2989.24C943.689 2986.34 940.312 2982 937.901 2981.52C936.182 2981.52 934.485 2981.91 932.939 2982.66C931.393 2983.41 930.038 2984.51 928.978 2985.86C925.902 2989.75 923.98 2994.43 923.431 2999.37C921.984 3031.92 920.537 3064.24 920.296 3095.83C918.849 3211.59 918.125 3327.35 916.437 3442.87C916.437 3472.05 913.543 3500.99 911.855 3529.93C912.354 3531.5 912.354 3533.18 911.855 3534.75C908.961 3539.09 905.584 3543.19 902.449 3547.29C899.796 3542.71 895.214 3538.37 894.732 3533.55C892.32 3521.01 892.32 3506.54 892.32 3492.55C890.391 3356.05 888.944 3219.31 886.773 3082.57C886.773 3053.15 883.638 3023.48 881.709 2994.06C881.428 2990.2 879.707 2986.58 876.885 2983.93C875.58 2982.99 874.051 2982.41 872.452 2982.25C870.852 2982.09 869.238 2982.35 867.772 2983.01C866.306 2983.67 865.039 2984.71 864.099 2986.01C863.159 2987.31 862.578 2988.84 862.415 2990.44C860.297 3002.24 859.007 3014.16 858.557 3026.14C857.11 3105.24 856.145 3184.34 854.939 3263.44C853.733 3342.54 853.01 3416.1 851.563 3492.31C851.563 3506.78 849.633 3521.25 847.945 3535.72C847.945 3541.02 847.945 3549.46 839.987 3548.98C836.852 3548.98 832.511 3540.3 832.028 3535.23C829.855 3519.24 828.647 3503.14 828.411 3487C826.481 3361.35 825.034 3235.95 823.105 3110.54C823.105 3077.26 822.381 3043.98 820.934 3010.7C821.072 3004.07 820.094 2997.47 818.04 2991.17C816.593 2987.31 811.047 2982.24 807.67 2982.48C804.294 2982.73 799.712 2988.27 798.506 2992.37C796.207 3000.7 794.991 3009.29 794.888 3017.94C793.441 3069.79 792.236 3121.88 791.753 3173.73C791.753 3267.06 791.753 3360.39 789.341 3453.72C789.341 3479.77 786.689 3505.57 784.759 3531.62C784.759 3539.09 781.624 3548.98 773.424 3548.98C765.225 3548.98 763.054 3539.33 762.09 3531.86C759.437 3505.09 756.543 3478.56 754.613 3451.79C749.468 3378.96 744.565 3306.61 739.902 3234.74C731.342 3122.98 729.168 3010.81 733.391 2898.8C734.648 2866.39 738.519 2834.13 744.967 2802.33C750.326 2781.5 758.436 2761.46 769.083 2742.77C791.118 2704.09 810.146 2663.78 825.999 2622.18C835.48 2594.98 840.211 2566.34 839.987 2537.54C838.057 2445.17 836.369 2352.56 834.681 2260.2C834.483 2255.48 833.248 2250.87 831.063 2246.69C820.93 2231.29 816.104 2213 817.317 2194.6C820.232 2160.66 811.745 2126.71 793.2 2098.13C781.624 2078.12 770.772 2057.62 758.713 2038.08C750.682 2025.87 739.743 2015.84 726.879 2008.9C716.334 2001.71 706.411 1993.64 697.215 1984.79C696.21 1983.37 695.537 1981.75 695.245 1980.03C694.952 1978.32 695.049 1976.57 695.527 1974.9C698.434 1968.85 701.821 1963.04 705.656 1957.53C706.88 1955.76 707.536 1953.66 707.536 1951.5C707.536 1949.35 706.88 1947.25 705.656 1945.48C693.116 1921.36 681.539 1894.83 668.758 1869.51C668.653 1869.03 668.653 1868.54 668.758 1868.06C665.585 1851.29 660.064 1835.06 652.358 1819.83C644.187 1799.94 637.26 1779.56 631.618 1758.81C629.447 1752.3 628.483 1745.31 626.553 1738.56C624.624 1731.8 621.489 1723.85 618.354 1716.85C616.787 1712.86 613.89 1709.54 610.154 1707.45C598.095 1702.62 586.037 1699.01 573.014 1695.15C570.222 1694.65 567.365 1694.65 564.573 1695.15C555.943 1696.82 547.034 1696.36 538.625 1693.79C530.217 1691.23 522.565 1686.64 516.34 1680.44C511.034 1674.65 501.387 1673.44 495.84 1667.9C481.344 1656.3 464.46 1648.07 446.401 1643.78C440.484 1641.85 434.212 1641.26 428.038 1642.05C421.865 1642.84 415.945 1645 410.708 1648.36C400.338 1654.15 389.727 1659.7 379.356 1665.72C371.187 1670.92 361.643 1673.54 351.965 1673.24C342.287 1672.94 332.924 1669.73 325.094 1664.04C321.006 1660.67 317.139 1657.05 313.518 1653.18V1650.29C319.672 1650.71 325.794 1651.51 331.846 1652.7C336.462 1654.63 340.97 1656.8 345.352 1659.21C348.079 1660.72 351.196 1661.36 354.295 1661.06C357.394 1660.76 360.329 1659.53 362.716 1657.53C372.362 1649.33 371.639 1640.64 360.545 1633.41C355.478 1630.44 350.15 1627.93 344.628 1625.93C338.86 1624.07 333.716 1620.65 329.76 1616.06C325.804 1611.46 323.189 1605.87 322.2 1599.89L320.753 1593.38C316.653 1574.08 312.794 1570.95 292.536 1569.26C281.327 1570.42 270.102 1567.22 261.184 1560.34L307.247 1555.27C304.711 1552.23 302.527 1548.91 300.736 1545.38C300.133 1542.68 300.133 1539.88 300.736 1537.18C303.63 1537.18 307.73 1537.18 309.177 1538.87C312.49 1543.04 315.322 1547.57 317.617 1552.38C320.27 1556.72 322.923 1561.06 325.817 1565.4C327.505 1565.4 327.988 1563.95 328.229 1563.47C328.47 1562.99 333.293 1557.44 335.705 1554.55C338.104 1558.02 340.279 1561.65 342.216 1565.4C343.515 1568.94 344.563 1572.57 345.352 1576.25C336.428 1581.08 334.258 1586.62 341.011 1593.38C347.093 1599.4 354.197 1604.3 361.992 1607.85C369.633 1611.92 377.728 1615.08 386.109 1617.25C394.452 1618.82 402.964 1619.31 411.432 1618.7C418.425 1618.7 419.39 1612.43 416.255 1606.64C404.197 1584.93 392.138 1563.47 380.08 1541.77C377.713 1537.37 374.248 1533.66 370.022 1530.99C365.796 1528.33 360.952 1526.81 355.963 1526.57C338.298 1524.33 321.018 1519.71 304.594 1512.83C298.88 1509.88 294.084 1505.42 290.725 1499.93C287.366 1494.45 285.574 1488.15 285.542 1481.72C285.542 1476.17 290.365 1477.13 292.536 1479.3C298.365 1484.43 303.332 1490.45 307.247 1497.15C308.511 1500.38 310.689 1503.18 313.517 1505.19C316.344 1507.2 319.696 1508.35 323.164 1508.49C332.861 1509.57 342.649 1509.57 352.346 1508.49C362.475 1507.04 362.716 1501.73 356.928 1493.29C350.773 1484.32 341.763 1477.69 331.364 1474.48C327.513 1472.37 323.947 1469.78 320.753 1466.76L322.441 1462.91C327.264 1462.91 332.329 1462.91 337.393 1465.32C342.458 1467.73 341.975 1468.45 344.146 1468.21C349.192 1467.49 354.187 1466.44 359.098 1465.08C357.905 1460.73 356.456 1456.46 354.757 1452.29C352.346 1447.95 348.246 1444.58 346.075 1440.24C343.905 1435.89 346.075 1434.21 346.075 1431.31C349.693 1431.31 355.24 1431.31 356.445 1432.76C359.675 1438.54 362.186 1444.7 363.922 1451.09C364.888 1455.21 364.888 1459.5 363.922 1463.63C360.304 1485.57 375.98 1498.12 388.038 1511.86C388.038 1511.86 389.485 1511.86 391.174 1511.86C391.605 1505.71 392.411 1499.59 393.585 1493.53C394.791 1487.99 395.997 1479.79 402.991 1480.75C409.985 1481.72 408.296 1489.92 407.573 1495.46C406.849 1501.01 404.679 1511.62 404.197 1519.58C404.204 1524.4 404.936 1529.2 406.367 1533.81C406.367 1536.46 408.055 1538.63 408.296 1541.04C408.976 1559.28 416.664 1576.56 429.76 1589.28C436.572 1597.61 442.932 1606.31 448.813 1615.32C452.681 1620.33 458.364 1623.62 464.635 1624.48C470.907 1625.33 477.264 1623.69 482.335 1619.9C487.158 1615.8 489.811 1616.29 493.429 1621.35C498.446 1628.74 504.095 1635.68 510.31 1642.09C521.791 1650.36 534.974 1655.96 548.897 1658.49C553.781 1659.44 558.611 1660.65 563.367 1662.11C575.341 1666.2 588.251 1666.7 600.507 1663.55C606.536 1663.55 607.26 1659.94 604.125 1654.39C599.328 1644.89 595.218 1635.06 591.825 1624.97C588.109 1613.06 580.456 1602.77 570.12 1595.79C559.026 1588.55 547.45 1581.8 536.598 1574.08C525.745 1566.36 518.51 1558.89 509.105 1552.38C501.317 1547.59 493.265 1543.24 484.988 1539.35L473.653 1533.33C487.399 1525.61 481.853 1515.96 479.2 1506.8C466.016 1461.78 452.591 1416.68 438.925 1371.5C433.965 1355.74 425.749 1341.2 414.808 1328.82C401.061 1313.14 387.074 1297.47 374.292 1280.58C368.433 1272.57 360.924 1265.9 352.271 1261.04C343.617 1256.17 334.021 1253.21 324.129 1252.37C299.731 1248.07 277.248 1236.37 259.737 1218.85C257.743 1216.11 256.346 1212.99 255.637 1209.68L257.808 1207.51L270.59 1213.06L298.565 1225.84C300.494 1225.84 304.594 1225.84 305.318 1225.84C305.795 1224.69 306.041 1223.46 306.041 1222.22C306.041 1220.98 305.795 1219.75 305.318 1218.61C302.906 1213.3 299.53 1208.24 296.636 1203.17C279.995 1175.44 263.113 1147.94 248.402 1119.73C245.542 1113.23 241.396 1107.39 236.215 1102.54C231.034 1097.69 224.925 1093.94 218.256 1091.51C212.951 1090.06 204.992 1087.65 207.404 1080.18C209.815 1072.7 217.533 1075.84 223.562 1077.04L232.244 1079.45C232.784 1075.45 232.784 1071.4 232.244 1067.4C222.815 1036.74 205.225 1009.23 181.358 987.811C173.352 978.97 166.243 969.356 160.135 959.112C155.296 954.42 150.139 950.069 144.7 946.089C140.6 942.472 135.536 940.06 131.195 936.443C130.602 935.416 130.29 934.252 130.29 933.066C130.29 931.881 130.602 930.717 131.195 929.69C131.195 928.243 135.295 927.761 137.465 927.52C139.636 927.278 140.6 927.52 142.288 927.52C143.977 927.52 152.176 927.52 152.9 927.52C153.787 925.591 154.247 923.493 154.247 921.37C154.247 919.247 153.787 917.149 152.9 915.22C149.653 909.261 148.135 902.513 148.519 895.738C148.902 888.963 151.172 882.429 155.07 876.875C158.447 893.998 162.064 908.709 164.476 923.661C165.222 934.833 168.551 945.679 174.2 955.346C179.85 965.013 187.666 973.237 197.034 979.37C211.504 988.052 221.15 985.881 227.662 970.929C236.378 956.202 241.411 939.59 242.335 922.502C243.259 905.414 240.045 888.356 232.968 872.775C227.903 862.646 224.285 851.794 219.944 840.941C221.221 840.083 222.685 839.542 224.214 839.364C225.742 839.187 227.291 839.377 228.731 839.92C230.171 840.463 231.46 841.342 232.49 842.485C233.521 843.628 234.264 845 234.656 846.488C240.203 859.029 245.026 870.605 250.09 884.351C251.779 888.933 252.743 893.998 254.673 898.58C258.772 907.503 263.837 907.985 270.59 900.75C274.001 897.292 277.713 894.144 281.683 891.345C281.683 891.345 284.336 891.345 286.989 891.345C285.461 894.564 283.771 897.703 281.925 900.75C270.107 918.596 257.808 936.201 246.473 954.53C242.108 962.28 238.319 970.34 235.138 978.646C234.44 980.776 233.635 982.868 232.726 984.917C229.109 991.428 223.803 997.94 226.697 1005.66C231.52 1018.44 237.309 1029.77 242.855 1043.04C245.026 1048.34 249.608 1053.65 249.367 1058.47C249.436 1069.62 252.519 1080.53 258.29 1090.06C266.731 1109.12 275.895 1127.93 285.542 1146.5C290.124 1155.66 294.706 1156.38 302.183 1148.91C315.379 1134.89 323.011 1116.54 323.647 1097.3C325.695 1071.96 318.404 1046.74 303.147 1026.4C302.535 1025.86 302.042 1025.21 301.7 1024.47C301.7 1020.61 297.842 1014.1 299.047 1013.13C304.594 1008.79 307.971 1014.58 311.106 1018.2C314.241 1021.81 316.412 1026.16 319.788 1029.29C320.828 1030.43 322.094 1031.34 323.506 1031.96C324.918 1032.59 326.444 1032.91 327.988 1032.91C329.435 1032.91 331.846 1027.84 331.605 1025.43C330.034 995.34 332.467 965.171 338.84 935.719C339.373 931.577 340.859 927.614 343.181 924.143C344.274 923.06 345.611 922.254 347.08 921.792C348.548 921.331 350.105 921.227 351.622 921.49C352.789 922.486 353.688 923.758 354.235 925.19C354.783 926.623 354.963 928.17 354.757 929.69C341.734 977.923 349.21 1028.57 346.316 1078.01V1079.69L357.892 1081.38C364.404 1081.38 365.369 1085.48 362.233 1090.55C359.098 1095.61 357.41 1097.54 354.757 1100.92C338.816 1124.79 327.298 1151.34 320.753 1179.3C319.725 1182.47 319.609 1185.88 320.419 1189.12C321.229 1192.36 322.932 1195.3 325.335 1197.62C332.57 1205.58 338.358 1214.99 344.869 1223.67C352.311 1233.87 362.906 1241.33 375.015 1244.89C381.432 1247.44 386.907 1251.9 390.691 1257.67C399.373 1269.49 406.849 1281.79 414.808 1294.81C416.542 1298.35 419.399 1301.22 422.932 1302.96C426.466 1304.71 430.478 1305.23 434.343 1304.46C436.272 1304.46 439.407 1301.32 439.407 1299.64C442.813 1244.2 441.037 1188.58 434.101 1133.47C429.712 1111.04 421.558 1089.52 409.985 1069.81C404.672 1060.02 400.078 1049.87 396.238 1039.42C395.634 1035.99 395.634 1032.48 396.238 1029.05H399.373C402.026 1033.39 404.679 1037.49 407.332 1042.07C409.36 1046.62 411.781 1050.97 414.567 1055.1C416.255 1057.27 419.873 1057.75 422.767 1058.95C422.767 1056.3 425.661 1053.41 425.178 1051C423.331 1041.64 420.996 1032.38 418.184 1023.26C409.985 996.01 401.061 969 394.068 941.507C390.079 926.975 387.336 912.13 385.868 897.133C384.856 884.821 380.243 873.079 372.604 863.37C341.252 824.783 309.9 786.197 278.066 747.852C263.885 731.722 246.679 718.531 227.421 709.024C220.713 705.465 214.266 701.436 208.127 696.966C206.921 696.966 205.957 691.902 206.68 691.178C209.746 688.118 213.239 685.519 217.05 683.461C217.05 683.461 221.874 687.319 223.08 689.972C224.115 693.433 226.079 696.543 228.757 698.967C231.436 701.39 234.727 703.033 238.273 703.719C243.224 705.502 248.057 707.596 252.743 709.989C257.553 712.052 262.706 713.197 267.937 713.365C279.513 713.365 280.719 710.471 284.336 699.378C287.954 688.284 293.259 675.261 298.324 662.721C298.324 660.55 302.424 659.103 304.594 657.415C306.765 660.55 310.624 663.444 310.624 666.579C309.988 671.475 308.69 676.262 306.765 680.808C302.665 693.59 297.842 706.13 294.948 719.153C293.278 727.453 294.158 736.064 297.473 743.854C300.787 751.645 306.38 758.251 313.518 762.804C323.423 771.016 331.617 781.094 337.634 792.467C342.61 801.45 349.633 809.134 358.134 814.896C370.192 823.578 382.25 833.224 393.344 842.63C395.07 844.115 396.682 845.727 398.167 847.453C409.502 858.546 410.949 858.305 416.014 843.835C418.423 836.655 421.491 829.712 425.178 823.095C429.659 816.255 431.756 808.127 431.146 799.973C430.535 791.819 427.251 784.094 421.802 777.997C419.093 774.424 416.826 770.538 415.049 766.422C414.446 763.722 414.446 760.922 415.049 758.222C417.582 759.267 420.005 760.56 422.284 762.081C422.284 762.081 423.731 764.251 424.455 765.457C432.654 778.721 443.025 779.203 453.636 767.627C458.191 761.985 463.461 756.959 469.312 752.675C475.456 749.499 481.925 746.992 488.605 745.199L490.535 747.852C488.157 751.45 485.581 754.912 482.817 758.222C474.618 767.386 465.936 776.068 458.701 785.715C455.306 790.008 452.991 795.053 451.948 800.426C450.742 806.937 454.842 809.59 460.389 805.972C466.449 801.485 472.246 796.654 477.753 791.503C482.027 788.009 486.631 784.94 491.499 782.338C494.929 781.724 498.44 781.724 501.87 782.338L503.075 784.75C500.207 788.214 497.148 791.515 493.911 794.638C482.094 805.973 469.794 816.584 457.977 828.642C438.213 848.129 425.343 873.53 421.32 900.991C420.243 914.258 421.301 927.611 424.455 940.542C433.86 979.611 444.472 1018.2 454.601 1057.03C454.601 1060.88 457.495 1064.26 459.183 1068.84L474.135 1059.92H475.823C474.084 1066.28 471.826 1072.49 469.071 1078.49C464.023 1088.73 461.855 1100.15 462.8 1111.53C462.194 1121 462.194 1130.51 462.8 1139.99C463.198 1141.7 463.995 1143.29 465.127 1144.63C466.259 1145.97 467.693 1147.02 469.312 1147.7C473.894 1149.39 474.618 1144.81 477.029 1141.43C482.886 1131.83 484.788 1120.33 482.335 1109.36C482.335 1107.19 480.406 1104.78 479.923 1102.61C479.441 1100.43 479.923 1097.78 479.923 1095.37C479.923 1092.96 486.917 1093.68 489.088 1095.37C501.87 1103.09 507.658 1101.16 513.204 1086.69C522.669 1060.17 529.061 1032.66 532.257 1004.69C534.419 982.371 531.449 959.852 523.575 938.854C521.628 933.688 517.967 929.347 513.204 926.555C504.522 921.008 494.876 917.149 485.711 912.326C483.065 911.009 480.818 909.012 479.2 906.538C478.67 905.492 478.394 904.335 478.394 903.162C478.394 901.989 478.67 900.832 479.2 899.786C480.22 899.311 481.331 899.065 482.456 899.065C483.58 899.065 484.692 899.311 485.711 899.786C495.117 904.127 504.281 908.709 515.857 914.497C515.517 906.418 514.711 898.366 513.446 890.38C511.516 881.216 508.14 872.775 505.487 863.852C505.038 861.705 505.038 859.488 505.487 857.341C506.38 854.854 507.971 852.677 510.069 851.07C510.069 851.07 514.651 853 515.616 854.688C519.716 862.164 523.333 870.122 527.192 878.804C539.733 902.921 538.527 898.339 555.409 886.28C556.502 885.384 557.721 884.653 559.026 884.11H570.602C570.602 887.486 570.602 892.068 568.914 894.48C562.885 902.197 556.132 909.191 549.38 916.426C545.95 922.057 544.136 928.523 544.136 935.116C544.136 941.709 545.95 948.175 549.38 953.806C550.463 954.357 551.661 954.644 552.877 954.644C554.092 954.644 555.29 954.357 556.373 953.806C559.75 953.806 562.403 949.707 565.779 948.26C568.419 947.89 571.098 947.89 573.738 948.26C573.738 951.636 575.908 955.495 573.738 958.147C570.566 963.668 566.935 968.911 562.885 973.823C557.432 979.66 553.416 986.689 551.155 994.35C548.895 1002.01 548.452 1010.09 549.862 1017.96C549.862 1017.96 549.862 1019.16 549.862 1019.64C546.486 1037.73 542.868 1055.58 539.251 1073.42C539.251 1078.25 536.598 1083.07 535.633 1087.89C534.668 1092.72 532.98 1101.16 544.074 1101.16C549.138 1101.16 550.103 1105.5 546.968 1109.6C545.201 1112.09 542.892 1114.15 540.215 1115.63C520.823 1127.98 505.282 1145.53 495.358 1166.27C490.535 1174.95 486.435 1183.64 482.335 1192.56C480.959 1195.92 480.301 1199.54 480.406 1203.17C479.2 1238.38 478.235 1273.59 477.029 1308.56C477.013 1314.21 476.118 1319.82 474.376 1325.2C470.067 1337.62 470.496 1351.19 475.582 1363.3C488.846 1401.17 499.699 1439.51 514.169 1477.38C520.068 1495.08 529.871 1511.22 542.854 1524.62C555.837 1538.02 571.667 1548.33 589.172 1554.79C595.824 1557.82 602.27 1561.28 608.466 1565.16C617.148 1569.5 622.453 1565.16 621.006 1556.48C619.134 1547.76 616.553 1539.21 613.289 1530.91C608.472 1519.3 604.444 1507.38 601.231 1495.22C600.279 1485.23 600.848 1475.14 602.919 1465.32C610.78 1476.24 615.606 1489.06 616.907 1502.46C617.76 1507.67 619.217 1512.77 621.248 1517.65C622.695 1520.54 626.312 1523.92 628.965 1523.92C631.618 1523.92 634.994 1520.3 635.959 1517.41C642.824 1498.76 645.7 1478.88 644.4 1459.05C644.751 1438.96 640.242 1419.08 631.256 1401.11C622.269 1383.14 609.073 1367.6 592.79 1355.83C586.375 1350.49 580.697 1344.33 575.908 1337.5C572.291 1332.92 571.808 1327.37 578.561 1319.65C579.767 1322.51 581.219 1325.25 582.902 1327.85C592.79 1339.19 592.79 1339.19 607.019 1333.16C610.877 1340.15 614.736 1347.39 619.077 1354.38C623.428 1361.52 628.347 1368.29 633.788 1374.64C638.371 1379.7 642.229 1378.26 642.953 1371.5C643.676 1364.75 642.953 1352.93 644.641 1343.77C644.641 1339.67 644.641 1335.57 646.329 1331.47H651.152C652.013 1335.61 652.657 1339.8 653.082 1344.01C653.082 1365.96 655.252 1387.66 656.458 1409.37C656.686 1414.38 657.916 1419.3 660.076 1423.84C669.414 1445.82 672.016 1470.07 667.552 1493.53C665.14 1515.08 663.211 1536.54 661.764 1557.92C661.837 1559.61 662.313 1561.26 663.152 1562.73C663.991 1564.2 665.169 1565.44 666.587 1566.36C668.105 1566.78 669.697 1566.84 671.243 1566.55C672.789 1566.26 674.248 1565.62 675.51 1564.68C677.67 1562.54 679.247 1559.88 680.093 1556.96C681.69 1552.2 683.542 1547.53 685.639 1542.97C686.845 1540.8 689.98 1539.35 692.151 1537.67C694.251 1539.94 695.962 1542.55 697.215 1545.38C698.167 1548.69 698.167 1552.2 697.215 1555.51C695.042 1559.5 694.382 1564.13 695.357 1568.56C696.332 1573 698.876 1576.93 702.521 1579.63L692.151 1583.01C687.81 1583.01 683.228 1583.01 678.887 1584.93C675.441 1585.18 672.078 1586.1 668.993 1587.66C665.909 1589.21 663.165 1591.37 660.92 1593.99C658.676 1596.62 656.976 1599.67 655.921 1602.95C654.865 1606.24 654.473 1609.71 654.77 1613.15C652.287 1638.42 654.912 1663.92 662.487 1688.15C676.957 1728.67 693.357 1768.7 709.274 1808.74C713.101 1819.65 720.834 1828.75 730.979 1834.3C735.147 1837.78 737.893 1842.67 738.696 1848.05C742.796 1862.27 745.208 1876.98 749.308 1891.21C762.063 1930.04 782.668 1965.83 809.841 1996.36C813.699 2000.94 818.764 2005.04 824.311 2001.67C828.01 1998.65 830.424 1994.34 831.063 1989.61C835.465 1965.49 833.975 1940.67 826.722 1917.26C823.354 1906.92 821.091 1896.25 819.97 1885.43C819.085 1882.98 818.733 1880.37 818.937 1877.77C819.14 1875.17 819.894 1872.65 821.149 1870.37C822.404 1868.09 824.131 1866.1 826.215 1864.54C828.299 1862.97 830.692 1861.87 833.234 1861.31C835.223 1860.85 836.958 1859.64 838.08 1857.93C839.202 1856.23 839.626 1854.15 839.263 1852.15C839.263 1781.08 839.263 1710.1 839.263 1639.2C839.767 1636.49 839.767 1633.71 839.263 1631C824.949 1593.06 817.438 1552.89 817.076 1512.34C812.735 1457.12 808.153 1402.13 803.329 1346.9C801.732 1325.32 794.679 1304.49 782.83 1286.37C777.967 1278.82 774.001 1270.73 771.013 1262.26C770.402 1257.86 770.402 1253.39 771.013 1248.99H774.148L784.036 1259.36C788.377 1263.94 791.994 1273.11 798.988 1269.73C801.43 1267.66 803.434 1265.12 804.883 1262.26C806.332 1259.4 807.198 1256.29 807.429 1253.09C809.841 1228.98 811.288 1204.86 812.494 1180.74C814.744 1136.69 816.674 1092.56 818.282 1048.34C818.282 1041.83 818.282 1035.56 818.282 1029.05C818.37 1019.16 815.275 1009.51 809.456 1001.52C803.636 993.532 795.4 987.625 785.965 984.676C778.73 982.023 772.701 979.37 770.289 970.447C768.842 965.382 763.537 961.283 759.678 956.7C750.513 944.883 740.626 932.584 731.702 921.249C720.017 903.755 704.351 889.279 685.99 879.008C667.628 868.738 647.094 862.965 626.071 862.164C621.793 861.836 617.617 860.69 613.771 858.788C622.936 850.347 634.271 853.964 644.882 851.07C646.092 837.705 643.85 824.252 638.37 812.002C633.053 798.889 628.621 785.434 625.106 771.727C621.73 754.604 607.26 750.746 594.719 745.44C582.178 740.135 582.42 738.205 589.172 729.523C591.451 726.825 592.7 723.408 592.7 719.877C592.7 716.345 591.451 712.928 589.172 710.23C587.801 708.718 586.778 706.924 586.174 704.975C585.57 703.025 585.399 700.967 585.675 698.945C585.951 696.922 586.666 694.985 587.77 693.268C588.874 691.552 590.34 690.097 592.066 689.008C595.21 686.609 597.312 683.095 597.94 679.191C598.569 675.287 597.675 671.29 595.443 668.026L585.555 646.563C583.384 641.739 585.555 637.157 589.172 635.469C590.787 635.253 592.43 635.449 593.948 636.04C595.466 636.63 596.81 637.595 597.854 638.845C601.697 644.189 604.405 650.262 605.813 656.692C608.225 676.467 607.742 696.484 611.36 715.777C614.978 728.853 620.417 741.355 627.518 752.916C631.377 760.151 636.441 759.669 641.023 752.916C645.606 746.164 646.329 743.752 649.223 739.411C651.118 736.457 653.213 733.637 655.493 730.97H657.905C658.254 735.143 658.254 739.338 657.905 743.511C655.976 757.498 653.082 771.004 651.635 784.991C650.863 792.109 651.436 799.308 653.323 806.214C656.463 814.498 660.169 822.556 664.417 830.33C666.378 834.098 668.722 837.653 671.41 840.941C674.787 845.282 679.128 850.829 685.157 847.212C689.014 843.913 691.436 839.242 691.91 834.189C691.91 823.578 691.91 812.484 693.839 801.632C694.285 797.48 695.342 793.417 696.974 789.573C700.86 781.694 702.159 772.79 700.686 764.129C699.214 755.468 695.045 747.493 688.775 741.34C683.376 736.35 679.28 730.116 676.842 723.18C674.404 716.245 673.698 708.819 674.787 701.548L679.128 708.542C682.263 713.124 684.916 718.189 688.292 722.529C690.032 725.606 692.681 728.069 695.876 729.581C699.072 731.092 702.656 731.577 706.139 730.97C713.856 729.282 713.615 721.806 714.579 716.018C715.785 705.407 716.026 694.796 717.232 684.425C717.981 681.691 719.296 679.144 721.091 676.949C722.908 678.847 724.599 680.861 726.156 682.978C727.603 685.39 728.567 688.284 730.255 691.419C737.973 686.837 738.696 679.602 740.867 672.85C742.517 667.367 745.13 662.223 748.584 657.656C749.835 656.509 751.338 655.672 752.971 655.211C754.605 654.75 756.324 654.679 757.99 655.003C759.375 656.089 760.489 657.482 761.242 659.073C761.996 660.664 762.368 662.408 762.331 664.168C762.689 670.981 761.331 677.774 758.381 683.926C755.432 690.078 750.985 695.391 745.449 699.378C739.588 702.341 734.726 706.96 731.467 712.663C728.209 718.365 726.697 724.899 727.12 731.453C726.134 737.112 724.432 742.622 722.056 747.852L753.89 744.234V746.887C750.926 749.142 747.683 751.007 744.243 752.434C736.46 754.358 729.536 758.812 724.56 765.098C719.584 771.384 716.836 779.145 716.75 787.162C715.303 801.39 711.685 815.137 710.721 829.365C710.139 839.091 711.033 848.848 713.374 858.305C714.424 863.124 716.677 867.597 719.925 871.309C723.172 875.02 727.307 877.848 731.944 879.528C734.317 880.54 736.46 882.024 738.243 883.89C740.025 885.755 741.41 887.963 742.314 890.38C751.961 926.555 783.312 942.472 809.358 962.73C810.645 963.778 812.285 964.296 813.941 964.177C818.944 962.958 823.463 960.258 826.906 956.428C830.349 952.598 832.554 947.818 833.234 942.713C833.234 918.596 833.234 894.48 830.099 870.363C828.028 848.718 817.865 828.651 801.641 814.172C799.604 811.667 798.05 808.805 797.059 805.731C799.654 804.412 802.411 803.439 805.259 802.837C821.417 802.837 826.964 798.496 830.581 782.58C836.851 754.363 841.916 725.665 846.981 697.207C847.878 691.888 847.19 686.422 845.003 681.49C842.816 676.559 839.226 672.379 834.681 669.473C817.578 657.478 799.868 646.369 781.624 636.193C768.842 628.958 767.636 628.475 775.836 616.658C778.283 612.877 779.838 608.589 780.381 604.118C780.924 599.647 780.442 595.111 778.971 590.854C773.666 573.49 767.878 556.367 762.331 539.003C761.125 535.145 760.401 530.804 759.437 526.704L762.09 524.774C765.101 527.034 767.851 529.622 770.289 532.492C773.424 537.074 775.595 542.379 778.248 547.203C783.312 555.644 786.206 556.126 794.165 550.579L801.641 546.479C801.641 552.508 801.641 556.849 801.641 560.949C799.839 572.197 798.872 583.563 798.747 594.953C799.074 604.271 802.191 613.275 807.695 620.8C813.199 628.324 820.836 634.023 829.617 637.157C835.991 639.939 842.612 642.119 849.392 643.669C850.736 644.129 852.17 644.263 853.575 644.057C854.981 643.852 856.317 643.314 857.473 642.489C858.629 641.663 859.571 640.574 860.22 639.311C860.87 638.048 861.209 636.648 861.209 635.228C862.418 629.259 862.418 623.109 861.209 617.141C851.563 584.824 841.916 552.508 830.822 520.675C824.658 503.082 812.202 488.392 795.853 479.435C790.539 476.072 785.961 471.667 782.396 466.486C778.831 461.305 776.354 455.455 775.113 449.29C774.86 445.356 775.436 441.412 776.801 437.714H779.936C783.795 442.778 787.412 448.084 791.753 452.907C795.208 456.149 798.831 459.208 802.606 462.072C803.937 457.695 804.588 453.14 804.535 448.566C802.365 431.926 798.747 415.286 796.818 398.404C794.888 381.523 796.818 367.053 794.165 351.618C794.491 347.812 793.651 343.996 791.755 340.679C789.86 337.361 786.999 334.7 783.554 333.048C782.354 332.342 781.308 331.402 780.479 330.283C779.651 329.165 779.056 327.891 778.73 326.537C777.644 323.496 777.644 320.173 778.73 317.132C778.73 315.685 784.277 315.685 786.93 315.685C789.467 316.026 791.969 316.591 794.406 317.373C799.602 308.047 802.799 297.742 803.796 287.113C804.792 276.484 803.566 265.764 800.194 255.635C798.922 251.619 796.687 247.976 793.683 245.023C782.027 227.006 773.847 206.965 769.566 185.938C768.721 183.85 768.721 181.515 769.566 179.427C774.148 168.092 779.212 156.998 784.277 145.663C784.277 145.663 785.965 145.663 788.859 142.528C788.859 148.075 788.859 151.934 788.859 155.792C788.859 168.333 786.447 179.909 785.965 193.414C786.162 202.373 788.315 211.181 792.272 219.221C796.23 227.261 801.897 234.338 808.876 239.959C810.59 240.847 812.492 241.31 814.423 241.31C816.353 241.31 818.256 240.847 819.97 239.959C837.334 229.106 854.698 217.531 871.339 205.472C874.474 203.302 875.438 197.514 876.403 192.932C878.815 181.597 880.744 168.815 883.156 158.686C884.403 155.806 885.938 153.058 887.738 150.487H890.873C890.522 155.916 889.796 161.315 888.703 166.645C886.291 175.327 884.362 183.526 893.767 190.761C893.767 190.761 893.767 197.273 893.767 198.961C889.597 203.499 884.993 207.618 880.021 211.26C863.621 224.766 846.981 238.03 830.34 251.052C826.659 253.832 823.752 257.508 821.894 261.729C820.037 265.951 819.291 270.578 819.729 275.169C819.729 307.726 819.729 340.525 819.729 373.082C819.699 378.955 820.511 384.803 822.14 390.446C835.232 372.114 846.538 352.571 855.904 332.084C866.515 311.344 860.004 287.71 865.792 266.246H869.892L875.197 290.362C878.243 290.749 881.324 290.005 883.857 288.271C886.391 286.538 888.201 283.935 888.944 280.957C901.839 254.516 920.855 231.532 944.412 213.913C950.501 209.402 957.368 206.05 964.67 204.025C967.082 204.025 970.217 205.472 973.111 206.437C971.664 208.849 971.182 212.466 969.011 213.672C944.803 231.283 923.694 252.799 906.549 277.339C897.471 288.586 889.401 300.611 882.432 313.273C880.276 317.194 878.499 321.313 877.127 325.572C875.68 330.396 877.127 333.29 882.673 334.013C887.287 335.256 891.739 337.037 895.938 339.319C892.829 343.708 889.445 347.896 885.809 351.859C881.913 355.004 877.711 357.751 873.268 360.059C861.434 367.804 851.322 377.904 843.563 389.73C835.804 401.555 830.564 414.852 828.169 428.791C826.855 434.748 826.855 440.921 828.169 446.878C831.787 460.383 836.128 473.648 840.469 486.67C842.438 496.62 847.81 505.573 855.663 511.993C859.28 514.404 860.004 521.88 861.209 527.186C865.184 548.382 872.683 568.761 883.397 587.477C888.944 597.124 891.597 597.847 900.279 591.336C927.745 573.918 947.505 546.651 955.506 515.128C956.382 511.624 957.997 508.347 960.243 505.519C962.489 502.69 965.314 500.375 968.529 498.729C974.522 495.343 979.513 490.435 982.999 484.5C997.196 459.978 1004.99 432.278 1005.67 403.951C1006.18 394.083 1007.31 384.257 1009.05 374.529H1012.18L1018.69 388.516C1022.46 384.664 1025.85 380.465 1028.82 375.976C1037.99 355.959 1047.63 336.184 1055.83 315.685C1064.03 295.186 1073.2 267.452 1081.4 245.023C1084.48 237.015 1085.92 228.468 1085.63 219.891C1085.34 211.314 1083.33 202.884 1079.71 195.102C1063.64 154.241 1053.57 111.271 1049.8 67.5261C1049.8 63.9087 1049.8 59.8088 1049.8 55.9502C1048.89 49.2116 1047.6 42.529 1045.94 35.9335C1044.5 30.8691 1040.16 26.287 1045.94 19.052C1048.6 24.5988 1051.49 28.9398 1053.42 33.7631C1055.35 38.5864 1055.83 44.6155 1057.52 49.9211C1059.21 55.2267 1059.93 54.9856 1061.62 55.4679C1063.31 55.9502 1065.96 53.2974 1067.89 52.0916C1068.57 51.6196 1069.07 50.9434 1069.34 50.1623C1083.11 28.3291 1102.86 10.9163 1126.25 0H1133.49ZM907.996 2247.9C907.996 2260.68 907.996 2273.46 907.996 2286.48C908.124 2288.09 908.627 2289.65 909.465 2291.03C910.302 2292.42 911.451 2293.58 912.819 2294.44C931.587 2304.87 952.989 2309.6 974.405 2308.06C995.82 2306.52 1016.32 2298.77 1033.4 2285.76C1045.56 2276.95 1055.59 2265.53 1062.76 2252.35C1069.94 2239.16 1074.08 2224.54 1074.88 2209.55C1077.8 2189.86 1076.82 2169.78 1071.99 2150.47C1049.8 2082.22 1004.7 2065.82 943.93 2073.53C937.593 2074.32 931.459 2076.29 925.842 2079.32C922.182 2081.93 919.607 2085.79 918.607 2090.17C918.121 2094.87 918.946 2099.61 920.989 2103.87C923.032 2108.12 926.215 2111.73 930.183 2114.29C933.751 2117.09 936.458 2120.83 937.994 2125.1C939.529 2129.37 939.831 2133.98 938.865 2138.41C938.122 2149.32 934.086 2159.75 927.289 2168.31C916.136 2181.35 909.981 2197.94 909.925 2215.1C907.755 2226.19 907.996 2237.04 907.996 2247.9Z" fill="#5E4B40"/>
<path id="Vector_2" d="M0 2069.19C33.9378 2066.17 68.0761 2066.17 102.014 2069.19V2071.84C97.1814 2073.36 92.4319 2075.13 87.7851 2077.15C79.3442 2080.76 77.1737 2085.11 80.3089 2092.82C102.014 2144.67 123.96 2196.77 145.907 2248.62C145.907 2249.82 147.354 2250.79 148.559 2253.2C150.276 2250.83 151.808 2248.33 153.142 2245.72C169.541 2207.86 186.664 2170.24 201.375 2132.13C204.392 2126.44 205.984 2120.11 206.013 2113.67C206.043 2107.23 204.509 2100.88 201.545 2095.17C198.58 2089.45 194.273 2084.54 188.993 2080.86C183.712 2077.17 177.617 2074.82 171.229 2074.01C169.127 2073.44 167.159 2072.46 165.441 2071.12C199.072 2067.26 233.004 2066.78 266.732 2069.67V2071.84L260.461 2073.77C255.258 2075.51 250.181 2077.6 245.268 2080.04C244.152 2080.67 243.172 2081.51 242.384 2082.52C241.597 2083.53 241.018 2084.68 240.681 2085.92C240.345 2087.15 240.257 2088.44 240.423 2089.71C240.59 2090.98 241.007 2092.2 241.65 2093.31C264.079 2145.88 286.748 2198.45 309.177 2250.79C309.177 2250.79 310.624 2253.2 311.83 2255.37C314.483 2249.58 316.894 2245 318.824 2240.17L372.363 2111.15C374.006 2107.59 375.298 2103.87 376.222 2100.06C376.935 2097.28 377.079 2094.4 376.646 2091.56C376.213 2088.73 375.211 2086.02 373.701 2083.59C372.192 2081.15 370.205 2079.05 367.861 2077.4C365.518 2075.76 362.865 2074.61 360.063 2074.01C356.858 2073.48 353.762 2072.42 350.899 2070.88C378.472 2067.17 406.35 2066.28 434.102 2068.22V2070.64C431.549 2072.34 428.794 2073.71 425.902 2074.74C419.054 2076.82 412.774 2080.45 407.548 2085.34C402.322 2090.23 398.288 2096.26 395.756 2102.95L333.535 2244.76C325.094 2264.29 316.894 2283.83 308.212 2303.12C306.181 2306.54 303.84 2309.77 301.219 2312.77C298.259 2309.97 295.666 2306.81 293.501 2303.36C278.79 2270.56 264.079 2237.76 249.609 2204.72C241.168 2185.67 232.968 2166.38 225.492 2147.33C224.045 2143.95 222.357 2140.81 219.704 2135.27L140.601 2313.49H137.948C135.381 2309.28 133.046 2304.93 130.954 2300.47C100.567 2232.94 70.3406 2165.49 40.275 2098.13C37.5414 2091.11 32.777 2085.07 26.5907 2080.77C20.4045 2076.48 13.0776 2074.12 5.54686 2074.01C3.56738 2073.22 1.70216 2072.16 0 2070.88L0 2069.19Z" fill="#5E4B40"/>
<path id="Vector_3" d="M1163.63 2305.29C1172.32 2300.71 1180.27 2296.85 1187.75 2292.51C1190.22 2291.19 1192.23 2289.14 1193.48 2286.63C1194.73 2284.13 1195.17 2281.29 1194.74 2278.52C1194.74 2219.68 1194.74 2160.76 1194.74 2101.75C1195.22 2094.8 1192.96 2087.94 1188.46 2082.63C1183.96 2077.32 1177.56 2073.97 1170.63 2073.29L1163.15 2071.6V2069.43C1169.31 2068.6 1175.51 2068.12 1181.72 2067.99C1229.96 2067.99 1278.19 2067.99 1328.35 2069.68C1349.1 2070.26 1369.43 2075.64 1387.76 2085.39C1406.08 2095.13 1421.9 2108.99 1433.98 2125.87C1450.92 2148.93 1458.13 2177.71 1454.07 2206.03C1450.01 2234.35 1435.01 2259.94 1412.28 2277.32C1392.29 2293.33 1367.89 2302.84 1342.34 2304.57C1284.94 2304.57 1227.3 2304.57 1169.9 2306.02C1167.8 2305.95 1165.7 2305.71 1163.63 2305.29V2305.29ZM1232.85 2074.02V2083.9C1232.85 2132.14 1232.85 2180.37 1232.85 2227.4C1232.85 2241.38 1232.85 2255.85 1235.02 2269.84C1236.71 2290.34 1242.25 2296.37 1262.75 2298.78C1292.8 2302.82 1323.38 2299.34 1351.74 2288.65C1365.06 2283.81 1376.99 2275.79 1386.49 2265.28C1395.99 2254.77 1402.77 2242.1 1406.25 2228.36C1411.82 2208.09 1412.73 2186.82 1408.9 2166.14C1406.36 2145.02 1397.12 2125.26 1382.54 2109.77C1367.96 2094.28 1348.8 2083.86 1327.87 2080.05C1297.24 2075.95 1265.65 2076.43 1232.85 2074.02Z" fill="#5E4B40"/>
<path id="Vector_4" d="M602.919 2313.74C581.777 2315.02 560.608 2311.74 540.844 2304.13C521.08 2296.52 503.183 2284.74 488.364 2269.61C475.565 2257.61 465.688 2242.83 459.492 2226.41C453.297 2209.99 450.947 2192.38 452.624 2174.91C454.301 2157.44 459.959 2140.59 469.165 2125.65C478.371 2110.72 490.879 2098.09 505.728 2088.74C541.544 2065.96 584.222 2056.49 626.312 2061.97C645.992 2063.33 665.199 2068.63 682.802 2077.53C700.405 2086.44 716.048 2098.77 728.808 2113.82C744.849 2131.23 754.094 2153.83 754.855 2177.49C756.223 2193.44 754.13 2209.49 748.719 2224.56C743.308 2239.63 734.706 2253.35 723.503 2264.79C698.925 2292.25 664.922 2309.46 628.241 2313.02C619.318 2313.02 610.636 2313.26 602.919 2313.74ZM602.919 2069.93C580.253 2068.74 557.85 2075.24 539.336 2088.37C520.822 2101.5 507.281 2120.49 500.905 2142.28C494.034 2163.25 492.054 2185.53 495.117 2207.39C503.075 2265.03 541.903 2315.43 620.524 2303.86C638.303 2301.55 655.045 2294.18 668.758 2282.63C689.44 2263.57 703.338 2238.27 708.344 2210.59C713.349 2182.91 709.188 2154.35 696.492 2129.25C688.881 2110.95 675.815 2095.43 659.072 2084.82C642.329 2074.2 622.722 2069 602.919 2069.93Z" fill="#5E4B40"/>
<path id="Vector_5" d="M1653.69 2120.31C1650.78 2115.72 1648.12 2110.97 1645.73 2106.08C1641.94 2095.49 1634.86 2086.39 1625.54 2080.1C1616.21 2073.81 1605.12 2070.66 1593.88 2071.11C1581.62 2070.35 1569.33 2071.57 1557.46 2074.73C1551.96 2076.57 1547.03 2079.82 1543.17 2084.16C1539.31 2088.49 1536.65 2093.76 1535.46 2099.44C1534.26 2105.12 1534.57 2111.02 1536.36 2116.54C1538.15 2122.06 1541.35 2127.02 1545.64 2130.92C1560.34 2142.6 1575.72 2153.4 1591.71 2163.24C1609.79 2175.3 1629.09 2185.67 1646.69 2198.21C1656.76 2204.41 1664.56 2213.7 1668.9 2224.7C1673.25 2235.7 1673.92 2247.81 1670.81 2259.22C1667.79 2271.81 1661.27 2283.28 1652.01 2292.33C1642.75 2301.37 1631.13 2307.62 1618.48 2310.35C1593.59 2315.77 1567.72 2314.52 1543.47 2306.73C1539.3 2305.18 1534.9 2304.29 1530.45 2304.08C1523 2305.36 1515.67 2307.21 1508.5 2309.63C1505.14 2289.02 1505.14 2268.01 1508.5 2247.41H1511.4C1513.58 2250.93 1515.44 2254.64 1516.95 2258.5C1520.49 2268.49 1526.18 2277.58 1533.62 2285.12C1541.06 2292.67 1550.07 2298.49 1560.01 2302.17C1569.95 2305.85 1580.57 2307.3 1591.13 2306.42C1601.7 2305.55 1611.94 2302.36 1621.13 2297.09C1626.01 2294.45 1630.24 2290.76 1633.52 2286.28C1636.79 2281.8 1639.03 2276.65 1640.07 2271.21C1641.11 2265.76 1640.92 2260.14 1639.52 2254.78C1638.12 2249.41 1635.55 2244.42 1631.98 2240.17C1623.49 2230.84 1613.75 2222.73 1603.04 2216.05C1582.78 2203.27 1561.32 2191.94 1541.3 2179.16C1528.37 2171.88 1518.44 2160.25 1513.27 2146.34C1508.11 2132.43 1508.04 2117.14 1513.09 2103.19C1516.99 2091.71 1524.3 2081.68 1534.03 2074.45C1543.76 2067.21 1555.47 2063.1 1567.59 2062.67C1588.02 2059.57 1608.88 2060.72 1628.85 2066.05C1638.25 2068.22 1647.66 2072.32 1652.96 2060.99C1660.97 2079.9 1661.23 2101.21 1653.69 2120.31V2120.31Z" fill="#5E4B40"/>
</g>
</g>
</svg>
